PathFileType	4	(X/Y/Z)	c:/Users/goper/Files/vsCode/490R/osim_files/A03/A03_Slow_04.trc
DataRate	CameraRate	NumFrames	NumMarkers	Units                	OrigDataRate	OrigDataStartFrame	OrigNumFrames
250.00	250.00	6	36	mm	250.0	1662	2658
                Frame#	Time	LPSIS			LASIS			LTH1			LTH2			LTH3			LTH4			LLFE			LMFE			LSH1			LSH2			LSH3			LSH4			LLMAL			LMMAL			LCAL			LMTP5			LTOE			LMTP1			RPSIS			RASIS			RTH1			RTH2			RTH3			RTH4			RLFE			RMFE			RSH1			RSH2			RSH3			RSH4			RLMAL			RMMAL			RCAL			RMTP1			RTOE			RMTP5		
		X1	Y1	Z1	X2	Y2	Z2	X3	Y3	Z3	X4	Y4	Z4	X5	Y5	Z5	X6	Y6	Z6	X7	Y7	Z7	X8	Y8	Z8	X9	Y9	Z9	X10	Y10	Z10	X11	Y11	Z11	X12	Y12	Z12	X13	Y13	Z13	X14	Y14	Z14	X15	Y15	Z15	X16	Y16	Z16	X17	Y17	Z17	X18	Y18	Z18	X19	Y19	Z19	X20	Y20	Z20	X21	Y21	Z21	X22	Y22	Z22	X23	Y23	Z23	X24	Y24	Z24	X25	Y25	Z25	X26	Y26	Z26	X27	Y27	Z27	X28	Y28	Z28	X29	Y29	Z29	X30	Y30	Z30	X31	Y31	Z31	X32	Y32	Z32	X33	Y33	Z33	X34	Y34	Z34	X35	Y35	Z35	X36	Y36	Z36

1662	6.64400	-1180.71887	1072.33252	290.81915	-1418.92175	991.00745	420.15024	-1495.76929	653.04718	460.09198	-1520.90271	618.60413	452.73740	-1544.47449	683.18671	433.83438	-1560.34973	642.16699	428.74576	-1517.97034	570.77209	440.87436	-1538.29199	569.80212	286.17148	-1514.39502	475.72836	441.94980	-1534.59009	432.37228	441.59613	-1572.65393	495.21313	436.25897	-1582.95667	449.13831	433.41113	-1665.11292	131.46715	413.74252	-1671.98730	138.66795	315.07477	-1607.15271	88.87205	362.74298	-1825.86792	138.98039	422.58563	-1839.42236	175.93582	352.75143	-1819.44641	143.10828	308.31635	-1184.37341	1084.25305	207.97455	-1422.74451	973.84454	121.68829	-1280.65808	613.24805	102.30427	-1279.49023	568.77948	112.38576	-1341.59998	605.31073	110.34205	-1332.50195	562.87024	118.98506	-1296.14453	534.01868	130.01193	-1332.32727	540.80084	249.27711	-1231.59521	476.63901	130.60033	-1221.90723	436.27261	120.52008	-1290.54272	457.28790	127.01679	-1272.10913	415.11072	118.83456	-1172.78381	125.97326	174.38536	0.00000	0.00000	0.00000	-1115.18030	86.56462	235.28424	-1331.13403	48.55143	258.00095	-1355.47119	69.98264	208.26906	-1317.73535	43.48183	140.83727
1663	6.64800	-1184.17480	1071.91858	291.12308	-1422.33423	990.15704	420.32687	-1498.73596	652.02875	459.52457	-1523.72510	617.54047	452.08633	-1547.45264	682.07001	433.22144	-1563.13635	640.99646	427.95117	-1520.54517	570.09796	440.26340	-1540.49280	568.84967	285.52078	-1517.84436	474.98550	441.61465	-1538.44470	431.83972	441.37204	-1575.96899	495.01147	435.79187	-1586.70129	448.97003	433.03366	-1671.82373	132.15970	414.05246	-1678.51111	139.12811	315.37570	-1614.23853	88.81059	363.27316	-1832.48877	141.29218	422.51913	-1845.61243	178.14537	352.51318	-1825.84387	144.99100	308.24609	-1187.80725	1083.83936	208.33182	-1426.00012	973.12946	121.83419	-1282.88831	612.87231	102.32995	-1281.60840	568.43872	112.42048	-1343.78857	604.74890	110.37238	-1334.54797	562.34082	118.99856	-1298.09534	533.62445	129.99461	-1334.49731	540.23309	249.27150	-1233.29321	476.50137	130.60510	-1223.43616	436.19315	120.54128	-1292.18262	456.91196	127.00082	-1272.64722	414.88699	118.51018	-1172.93542	126.03787	174.31973	0.00000	0.00000	0.00000	-1115.27637	86.60233	235.21341	-1331.17102	48.58798	257.96497	-1355.45752	69.92616	208.24957	-1317.72729	43.43894	140.85832
1664	6.65200	-1187.65686	1071.45142	291.43652	-1425.87805	989.28455	420.48352	-1501.77820	651.03748	458.98880	-1526.53247	616.49323	451.45596	-1549.92334	680.33588	432.70193	-1565.90942	639.78589	427.15652	-1523.18433	569.40466	439.65451	-1542.74097	567.82025	284.84161	-1521.32666	474.25958	441.33072	-1542.20007	431.31659	441.16083	-1579.21948	494.75070	435.31506	-1590.78357	448.61850	430.80161	-1678.17151	132.73520	414.35730	-1684.66089	139.43221	315.67377	-1620.85327	88.69917	363.88626	-1838.79077	143.33191	422.52151	-1851.15662	179.75877	353.19150	-1831.87488	146.62131	308.23050	-1191.25647	1083.42065	208.61832	-1429.19055	972.42834	121.99473	-1285.14124	612.52045	102.36248	-1283.70667	568.10834	112.47030	-1345.97839	604.17877	110.34895	-1336.52637	561.83844	118.92035	-1300.08264	533.23553	130.00642	-1336.46863	539.61536	249.23352	-1235.00818	476.37122	130.62877	-1224.97314	436.09421	120.56953	-1293.82190	456.54648	126.98458	-1273.98572	414.36737	118.59366	-1173.04041	126.11251	174.29808	0.00000	0.00000	0.00000	-1115.36145	86.67841	235.15590	-1331.22131	48.61742	257.95810	-1355.43591	69.87156	208.21744	-1317.71631	43.38489	140.82295
1665	6.65600	-1191.19543	1070.97229	291.73218	-1429.63269	988.39185	420.61270	-1504.72681	650.07275	458.45978	-1529.42725	615.41425	450.86877	-1552.98828	679.22351	432.03403	-1568.88525	638.65326	426.39685	-1525.86353	568.67419	439.05777	-1545.04919	566.78851	284.22479	-1524.65002	473.52570	441.01343	-1545.91113	430.70636	440.98895	-1582.69495	494.82300	435.08023	-1594.33899	448.38846	430.43808	-1684.15759	133.16719	414.76526	-1690.45129	139.58347	316.08142	-1627.06934	88.51136	364.56818	-1844.73401	145.05814	422.57407	-1857.70178	181.69943	352.47415	-1837.54993	147.99017	308.31549	-1194.75439	1082.96558	208.93265	-1432.46411	971.75952	122.23888	-1287.42212	612.18854	102.40292	-1285.80151	567.79944	112.49262	-1348.19604	603.68756	110.34055	-1338.50427	561.38330	118.82104	-1302.06323	532.87500	129.99580	-1338.62341	539.11743	249.22916	-1236.76147	476.26263	130.69220	-1226.54382	436.11990	120.51799	-1295.43555	456.16528	126.97388	-1275.63110	414.44534	118.54336	-1173.19836	126.24044	174.22389	0.00000	0.00000	0.00000	-1115.28772	86.76625	235.17986	-1331.24939	48.65012	257.90225	-1355.39307	69.85197	208.17935	-1317.70544	43.36261	140.79276
1666	6.66000	-1194.69507	1070.50696	292.02756	-1433.31775	987.55762	420.80429	-1507.84070	649.10175	457.90234	-1532.38171	614.37384	450.27475	-1556.06555	678.01056	431.34753	-1571.81653	637.43054	425.70581	-1528.50854	567.91223	438.50970	-1547.43408	565.69312	283.66031	-1527.95520	472.72379	440.72260	-1549.46021	430.11060	440.78568	-1585.85181	494.37814	434.64932	-1597.80359	448.06168	430.08228	-1689.82410	133.44763	415.29175	-1695.85132	139.58980	316.49173	-1632.91492	88.28368	365.22491	-1850.09204	146.57803	422.68015	-1862.09961	183.01917	352.26035	-1842.87439	149.01347	308.47339	-1198.28088	1082.47546	209.24316	-1435.70850	971.15601	122.58035	-1289.72607	611.91199	102.48376	-1287.91541	567.54871	112.49371	-1350.39722	603.19379	110.29718	-1340.47546	560.97241	118.66132	-1304.07617	532.52246	129.96971	-1340.31055	537.92633	249.89775	-1238.07617	476.30960	130.53969	-1228.03406	436.01184	120.65416	-1297.05640	455.82910	126.97186	-1277.72131	413.97815	118.78236	-1173.32117	126.31151	174.17487	0.00000	0.00000	0.00000	-1115.45459	86.82758	235.09010	-1331.16663	49.01942	257.47144	-1355.39148	69.82045	208.17992	-1317.67786	43.30503	140.76532
1667	6.66400	-1198.18860	1069.99097	292.30225	-1436.87170	986.72485	420.98151	-1510.96240	648.14349	457.41824	-1535.34875	613.33643	449.71930	-1559.21594	676.86877	430.60992	-1574.71521	636.19733	424.98944	-1531.17188	567.14087	437.98315	-1549.83411	564.55591	283.11008	-1531.21106	471.96170	440.47528	-1552.90784	429.48129	440.63718	-1588.62732	493.45969	434.06873	-1601.09668	447.60492	429.81387	-1695.05286	133.56293	415.76901	-1700.85364	139.54849	316.93585	-1638.37512	87.89149	365.98157	-1855.36792	147.66032	422.90259	-1866.96790	184.04709	352.33429	-1847.78308	149.77466	308.64639	-1201.74609	1082.02454	209.54884	-1438.92639	970.59723	122.96642	-1292.01758	611.66138	102.52444	-1290.06873	567.27576	112.54417	-1352.65405	602.74847	110.29282	-1342.72632	560.39825	118.70456	-1306.07703	532.23523	129.95193	-1342.44727	537.48578	249.86334	-1240.22864	476.12253	130.86380	-1229.64893	436.06339	120.66006	-1298.59387	455.52979	126.92454	-1279.69202	414.16147	118.75494	-1173.40417	126.42619	174.10872	0.00000	0.00000	0.00000	-1115.48950	86.91926	235.03471	-1331.20728	49.02024	257.47842	-1355.36438	69.75838	208.16396	-1317.65942	43.27668	140.73943
